<?xml version="1.0" standalone="no"?>
<!DOCTYPE svg PUBLIC "-//W3C//DTD SVG 20010904//EN"
 "http://www.w3.org/TR/2001/REC-SVG-20010904/DTD/svg10.dtd">
<svg version="1.0" xmlns="http://www.w3.org/2000/svg"
 width="300.000000pt" height="300.000000pt" viewBox="0 0 300.000000 300.000000"
 preserveAspectRatio="xMidYMid meet">
<metadata>
Created by potrace 1.11, written by Peter Selinger 2001-2013
</metadata>
<g transform="translate(0.000000,300.000000) scale(0.100000,-0.100000)"
fill="#000000" stroke="none">
<path d="M1362 2119 c-223 -56 -403 -240 -437 -444 -9 -58 -15 -216 -8 -228 9
-14 10 -97 1 -97 -10 0 -48 21 -70 39 -16 13 -18 12 -18 -8 0 -39 28 -89 58
-105 16 -8 32 -13 34 -10 11 11 26 -26 43 -106 10 -47 24 -107 32 -135 50
-175 50 -165 10 -212 -19 -23 -39 -54 -46 -70 -9 -22 -19 -29 -42 -31 -38 -3
-97 -33 -125 -64 -64 -72 -76 -198 -26 -260 28 -33 41 -46 52 -50 19 -6 15
-175 -5 -246 -10 -34 -22 -65 -26 -68 -35 -21 43 -24 649 -24 l658 0 1 38 c2
72 3 85 9 80 3 -4 7 -12 8 -20 1 -7 11 -32 22 -55 l19 -43 117 0 c65 0 118 4
118 9 0 5 -3 11 -8 13 -14 6 -70 123 -95 198 -39 119 -40 136 -13 157 23 18
57 74 63 103 14 68 10 110 -17 163 -16 31 -41 68 -57 82 -40 38 -130 78 -175
79 -31 1 -39 5 -47 27 -5 14 -30 46 -57 72 -35 34 -49 56 -51 79 -1 18 -5 62
-9 98 -4 36 -8 175 -9 309 -2 135 -6 272 -9 306 -20 207 -135 370 -299 425
-61 19 -166 19 -245 -1z"/>
</g>
</svg>
